<?xml version="1.0" encoding="UTF-8"?>
<svg xmlns="http://www.w3.org/2000/svg" xmlns:xlink="http://www.w3.org/1999/xlink" viewBox="0 0 5500 3200">
  <defs>
    <style>
      .uuid-e1cc74fb-dc1a-4754-a8b4-95f047bfab40 {
        fill: url(#uuid-a25e26d6-4509-485e-a5de-ae4c6fa08a34);
      }

      .uuid-a1c4cb4c-39c2-4655-8cc7-62dde9572e8a {
        fill: url(#uuid-4e0df6e7-a362-48d1-892a-6557cb8e9e4f);
      }

      .uuid-63462a63-aa69-4222-a0f1-3bd402e7aeda {
        fill: url(#uuid-54097608-0e13-47c6-9687-7d6479102792);
      }

      .uuid-21720376-cb14-4491-99ba-107336a9dd13 {
        fill: #1f619e;
      }

      .uuid-b4c97b56-897a-477d-a65f-ddbc52e67e71 {
        fill: url(#uuid-6fda1140-c06c-4f60-b5d7-6885fd35aa1a);
        opacity: .6;
      }

      .uuid-d997daba-556c-4290-b681-9ccb6f298397 {
        fill: url(#uuid-40878dc0-55f7-466d-a5b5-c24a6b8c190c);
      }

      .uuid-48ee12d5-2258-42f3-b553-14c364357ba7 {
        fill: url(#uuid-b3261dee-da77-448a-ab88-b1e769d13730);
      }

      .uuid-a10da7b0-af1d-4f24-bdc7-a2612aa685b4 {
        fill: url(#uuid-76f1da9e-162d-4498-af83-1ddb59ee460f);
      }

      .uuid-731b25d3-3c74-404f-b186-16ff7be0d480 {
        fill: #0f145e;
      }

      .uuid-88e3ae42-c4bb-44f3-86b9-4f9c1941ec20 {
        fill: url(#uuid-454b4ec7-3cb8-482f-af9a-7ac9a32c31ee);
      }

      .uuid-2637d19d-64f8-4263-95bb-5ec2c7812850 {
        fill: url(#uuid-6e41cdce-104e-49b9-a0b3-f9c071bea5cd);
      }

      .uuid-23048283-3ab8-4b56-b7d4-68fbeafbeca5 {
        fill: url(#uuid-1f2d34ea-4c93-402d-a042-547382956dea);
      }

      .uuid-df540c5d-d9b5-40f0-b048-9c5b0f9e8e6d {
        fill: url(#uuid-84ac14e0-81d1-426e-837b-552e71d6b982);
      }

      .uuid-031f8c2e-c7bb-41f3-8798-b0c5e50b1218 {
        fill: url(#uuid-c1cdb30a-e6cb-4730-85a4-25197b08e11a);
      }

      .uuid-30710445-66a4-478b-a0d3-1d4f9714ea70 {
        fill: #0c1145;
      }

      .uuid-e303f591-5159-4521-98d8-09e263c5b450 {
        fill: #7fc7d1;
      }

      .uuid-e303f591-5159-4521-98d8-09e263c5b450, .uuid-c6d392a1-d680-4362-af62-7d1da8a83082, .uuid-e18da1a2-0444-43e5-b3fe-8a5ea4db6344, .uuid-ae28d313-6e1b-4d85-8c6d-f75a02d76363, .uuid-edcce3d8-0bda-4870-8a15-c820cf68ada8, .uuid-79502c38-9dbb-413b-ad6f-7d0e7b419865 {
        mix-blend-mode: screen;
      }

      .uuid-e303f591-5159-4521-98d8-09e263c5b450, .uuid-ae28d313-6e1b-4d85-8c6d-f75a02d76363 {
        opacity: .1;
      }

      .uuid-c6d392a1-d680-4362-af62-7d1da8a83082 {
        opacity: .4;
      }

      .uuid-1ce69b17-0dd9-4fdd-9e0e-0ec92fbe89c8 {
        fill: url(#uuid-e1b0cb93-2e41-4479-b573-971df8b5add9);
      }

      .uuid-39ae4833-0bdc-4539-803e-042cbdcd5759 {
        fill: url(#uuid-7e0a5346-97f1-43d0-be99-63f10b80943d);
      }

      .uuid-65a503c3-cc24-43b3-a99c-3c6e0f1633e3 {
        fill: url(#uuid-428469e9-ff74-4292-87c6-047e8eb73f7f);
      }

      .uuid-8429cf06-f2e7-4e68-8312-34f7dd30820c {
        fill: url(#uuid-686ba2e3-dd66-45a0-b784-079c534ecf6f);
      }

      .uuid-10fe8b5d-f6a3-4776-ac45-113d509bb32b {
        fill: url(#uuid-afde45ea-79e5-4121-b2c3-53ed9d775e34);
      }

      .uuid-91023332-e2b4-491f-89cb-eb006111b96d {
        fill: url(#uuid-143c7e0f-7ff7-4311-ab62-9cea13dcfc28);
      }

      .uuid-78258edd-f87c-494a-b78d-6ed0c3e4e11b {
        fill: url(#uuid-be8a3516-d940-41e7-a5b2-4f6f90bfe6fa);
      }

      .uuid-dfdffec6-a051-4425-a285-323b50beba8f {
        fill: url(#uuid-39c54f66-8b61-4454-a733-92efa9819b08);
      }

      .uuid-30ef131c-f1b3-4d56-9dc8-9f3873e25935 {
        fill: url(#uuid-02ddbd50-4fd8-4d09-a858-eb4f86a68744);
      }

      .uuid-0d8b619f-2528-42fc-b79f-6e00422f2314 {
        fill: url(#uuid-93bdb87c-5762-4223-98da-eb34089a1f02);
      }

      .uuid-aeddecc1-c275-4fa8-bc0c-60d9f1e45050 {
        fill: url(#uuid-c94ce2d8-1d86-45f0-b094-444cce47d0a0);
      }

      .uuid-fcd4daea-c376-4c75-92cb-6ca3e7f711cf {
        fill: url(#uuid-9ad42244-368e-4ca9-8020-d77bdde695af);
      }

      .uuid-efbfb597-93e7-4272-92c4-82627c1ae586 {
        fill: url(#uuid-b1b292bd-a90d-4ea9-958a-771bf8c56a42);
      }

      .uuid-954606f0-df9b-467d-9903-de1a689c9eaa {
        fill: url(#uuid-3fdd9d47-6815-43e2-8cda-3d8c7c8300f3);
      }

      .uuid-4d85ad0f-2e56-440d-b422-3b0068de5f12 {
        fill: url(#uuid-5efcdd36-2dd1-452c-9a3d-b7d1d148f760);
      }

      .uuid-5f9222c5-be6b-44a8-89ca-2cf8ecb87832 {
        fill: url(#uuid-2a812aba-7be6-4923-8195-d41aa4a13566);
      }

      .uuid-daf21322-c06c-45d4-9c9f-607c1a9ea9ca {
        fill: url(#uuid-69cdd82e-001f-4076-a12b-d17b3f0d466c);
      }

      .uuid-93143ae2-0762-45c2-ae99-380c5f89fa33 {
        fill: url(#uuid-62ab8312-85fa-4401-b4a5-aad295898b96);
      }

      .uuid-b026ad45-be31-45fe-a132-a6e519be0dc4 {
        fill: url(#uuid-ade6e5a2-b24c-4ef7-80ff-cb8cd2ccf2cc);
      }

      .uuid-08c2d48c-417f-4e2e-b9a6-bc96955581e6 {
        isolation: isolate;
      }

      .uuid-e18da1a2-0444-43e5-b3fe-8a5ea4db6344 {
        fill: url(#uuid-4b6de865-9f30-4fc2-b2b3-359f32028d08);
      }

      .uuid-e18da1a2-0444-43e5-b3fe-8a5ea4db6344, .uuid-4752d975-e56f-4b03-b80e-29a3b81b07c2, .uuid-edcce3d8-0bda-4870-8a15-c820cf68ada8, .uuid-8188818a-04da-413d-a7d9-40d6b135e6a1, .uuid-79502c38-9dbb-413b-ad6f-7d0e7b419865, .uuid-0a1a48de-d5c2-4675-afe7-b569555ac49b {
        opacity: .3;
      }

      .uuid-1e8ca2b5-35d1-48a5-8670-56e93ea41e80 {
        fill: #11276b;
      }

      .uuid-79c73534-2f21-4b83-be6a-5be99dd3bf45 {
        fill: url(#uuid-49a182aa-2519-465f-aa3d-c80ebf3485d2);
      }

      .uuid-01869277-81f6-4417-abaf-957dcbdc52cb {
        fill: url(#uuid-484f14b2-d581-4958-8751-79e4d672d6d4);
      }

      .uuid-ed3e37d2-d175-4c25-9e62-41fd63fb16b1 {
        fill: url(#uuid-6b92a085-5529-4f4b-8723-b68999a5b001);
      }

      .uuid-c312fb2f-e5b1-4810-8913-32c7aec15367 {
        fill: url(#uuid-7b1696e3-c824-4ead-ac37-9d8f8d01add9);
      }

      .uuid-fe5a2710-4d92-40b1-be8b-2962ebaae8a6 {
        fill: url(#uuid-a98d1726-3f27-439d-bcc0-384080e6d2f1);
      }

      .uuid-4752d975-e56f-4b03-b80e-29a3b81b07c2 {
        fill: url(#uuid-023a5753-64a7-42c7-b0c8-f34c0b9eafe3);
      }

      .uuid-4752d975-e56f-4b03-b80e-29a3b81b07c2, .uuid-8188818a-04da-413d-a7d9-40d6b135e6a1, .uuid-0a1a48de-d5c2-4675-afe7-b569555ac49b {
        mix-blend-mode: multiply;
      }

      .uuid-b106bbc2-2c17-42db-b262-1cf1bca57ac5 {
        fill: url(#uuid-ca30a7ff-925c-4524-81e6-c197e0ea74fa);
      }

      .uuid-5ed6f929-b86e-4d9c-8866-6922f1afa113 {
        fill: url(#uuid-3663f873-7b5c-4c03-8e88-c15de713b163);
      }

      .uuid-c7fe711c-5281-44ed-9674-1eb4b5d4a5b7 {
        fill: url(#uuid-7d63f9ff-61ad-49b3-a27b-d44792d06703);
      }

      .uuid-0e963a42-2408-4ecf-8e74-cdfe582fa790 {
        fill: url(#uuid-99d72efb-8e05-4dd0-8b11-78afcf8ea1b4);
      }

      .uuid-a2685fc0-f498-4fc7-8785-d8540c97b65a {
        fill: url(#uuid-66b66f7d-5e99-44bf-9b6a-5c0f34edd820);
      }

      .uuid-421d5edc-cbd9-4bf4-9a78-57d445372b41 {
        fill: url(#uuid-cdcb567a-c305-4e34-8136-03a9bdb56808);
      }

      .uuid-3605fc14-897d-460a-9882-4bcf41fda9ac {
        fill: url(#uuid-74a722a9-69c3-4b50-88aa-f076bc36d03b);
      }

      .uuid-955859f7-b783-4834-bd5a-2690f4d27453 {
        fill: url(#uuid-bf71f39b-098a-48de-81ca-e4eeaa8be134);
      }

      .uuid-7ad7e7fd-c6ec-4b3c-9f35-61a9b89719c4 {
        fill: url(#uuid-a6299176-bbca-4fb8-961e-c468c6746092);
      }

      .uuid-4afae467-10ff-4164-ba23-256735bc7611 {
        fill: url(#uuid-8b320cf5-37f4-4b48-9ce4-3b0211b305ae);
      }

      .uuid-4d6d069a-5dc3-4eb9-8e4a-1f86d1ca11bf {
        fill: url(#uuid-6d494559-8cdc-497a-a2a3-d3f880cd6f26);
      }

      .uuid-4749f10e-fa18-46f2-b6e7-f9a9cb5fafc6 {
        fill: url(#uuid-a678e130-a4a2-4776-a42a-2e1714e9c2ef);
      }

      .uuid-dc71e548-78e9-4a8d-86ff-b53999429eea {
        fill: url(#uuid-c83707a9-c2df-4165-93dc-6ba9c64feabe);
      }

      .uuid-ae28d313-6e1b-4d85-8c6d-f75a02d76363 {
        fill: #4b6d7a;
      }

      .uuid-70e93744-f71b-46c2-ae19-9977c0849307 {
        fill: url(#uuid-734f6272-3427-4454-83ac-2e1b55ac3ede);
      }

      .uuid-edcce3d8-0bda-4870-8a15-c820cf68ada8 {
        fill: #5697b8;
      }

      .uuid-d3892450-8849-4871-9b20-11d6718bd36b {
        fill: url(#uuid-413aa84e-2912-46bc-883b-50245959754d);
      }

      .uuid-d0f33f66-3530-4137-afc8-950727ce4218 {
        fill: url(#uuid-c052e419-9926-4fbb-ad6b-ab6b7e78ef38);
      }

      .uuid-8188818a-04da-413d-a7d9-40d6b135e6a1 {
        fill: url(#uuid-dee8de03-a659-4f3b-8ec8-6f59c93ba2e9);
      }

      .uuid-1bbade0d-47d2-466e-9966-bb1227e49ca2 {
        fill: url(#uuid-69f3fab2-eae5-400e-b5f8-1bd8f3cb9a96);
      }

      .uuid-6c7fb81b-369a-4477-af26-b8a4d1e712d5 {
        fill: url(#uuid-3a85a929-a6e1-47ad-bbad-45ad74299585);
      }

      .uuid-9569cec2-908a-4895-8c90-9b807649ff66 {
        fill: url(#uuid-6a957928-135b-4f94-8631-bacef552b0de);
      }

      .uuid-d321416f-e5de-44cf-9121-a9a493c50948 {
        fill: url(#uuid-44f69ff0-26fc-45b3-bdca-bd6c6127c634);
      }

      .uuid-3b7c75ea-8fa7-4929-9337-a300ed1c43f4 {
        fill: url(#uuid-1ca0cd6c-704d-4a8f-8e22-d58155adae6c);
      }

      .uuid-a297739f-040e-44dc-98f3-5a604b110fd7 {
        fill: url(#uuid-eefe9653-a972-4896-8076-3be5ab71972c);
      }

      .uuid-54ace871-7323-4c78-a2ad-efb62a61c609 {
        opacity: .5;
      }

      .uuid-9814bcf0-633e-44fd-bd8c-6fb4b2e31752 {
        fill: url(#uuid-b6389967-d620-4e9b-8104-6549ab54adc6);
      }

      .uuid-6a1bb1a0-d391-4e42-8224-ab8f5218c7bb {
        fill: url(#uuid-3d1bc342-9aaf-432f-9caf-bf1bdab24068);
      }

      .uuid-d9d55762-4691-4cc5-85ad-c7e86dc76feb {
        fill: url(#uuid-432465c1-a307-49ff-9bec-30bccf5f9b8c);
      }

      .uuid-0a1a48de-d5c2-4675-afe7-b569555ac49b {
        fill: url(#uuid-15ea7f6e-75c6-4c82-afc8-173bf962acab);
      }
    </style>
    <linearGradient id="uuid-4e0df6e7-a362-48d1-892a-6557cb8e9e4f" x1="2750" y1="173.73" x2="2750" y2="2621.55" gradientUnits="userSpaceOnUse">
      <stop offset="0" stop-color="#131582"/>
      <stop offset=".09" stop-color="#153091"/>
      <stop offset="1" stop-color="#2b8fad"/>
    </linearGradient>
    <linearGradient id="uuid-1ca0cd6c-704d-4a8f-8e22-d58155adae6c" x1="3111.42" y1="2837.53" x2="3111.42" y2="2549.22" gradientUnits="userSpaceOnUse">
      <stop offset="0" stop-color="#154591"/>
      <stop offset="1" stop-color="#1f619e"/>
    </linearGradient>
    <linearGradient id="uuid-8b320cf5-37f4-4b48-9ce4-3b0211b305ae" x1="2026.34" y1="2040.55" x2="-1873.72" y2="2040.55" gradientUnits="userSpaceOnUse">
      <stop offset="0" stop-color="#123e82"/>
      <stop offset=".95" stop-color="#154a8f"/>
    </linearGradient>
    <linearGradient id="uuid-454b4ec7-3cb8-482f-af9a-7ac9a32c31ee" x1="2026.33" y1="971.03" x2="-1873.72" y2="971.03" xlink:href="#uuid-8b320cf5-37f4-4b48-9ce4-3b0211b305ae"/>
    <linearGradient id="uuid-cdcb567a-c305-4e34-8136-03a9bdb56808" x1="3112.92" y1="1934.08" x2="5500" y2="1934.08" gradientUnits="userSpaceOnUse">
      <stop offset="0" stop-color="#123e82"/>
      <stop offset="1" stop-color="#185299"/>
    </linearGradient>
    <linearGradient id="uuid-428469e9-ff74-4292-87c6-047e8eb73f7f" x1="3952.81" y1="2373.48" x2="3992.52" y2="3099.07" gradientUnits="userSpaceOnUse">
      <stop offset="0" stop-color="#1c3580"/>
      <stop offset="1" stop-color="#162163"/>
    </linearGradient>
    <linearGradient id="uuid-93bdb87c-5762-4223-98da-eb34089a1f02" x1="546.12" y1="2250.15" x2="561.39" y2="1249.84" gradientUnits="userSpaceOnUse">
      <stop offset="0" stop-color="#154591"/>
      <stop offset="1" stop-color="#2374a3"/>
    </linearGradient>
    <linearGradient id="uuid-69cdd82e-001f-4076-a12b-d17b3f0d466c" x1="3833.16" y1="3103.7" x2="3688.93" y2="2341.99" xlink:href="#uuid-93bdb87c-5762-4223-98da-eb34089a1f02"/>
    <linearGradient id="uuid-6fda1140-c06c-4f60-b5d7-6885fd35aa1a" x1="4191.23" y1="2719.73" x2="3683.2" y2="2391.54" xlink:href="#uuid-93bdb87c-5762-4223-98da-eb34089a1f02"/>
    <linearGradient id="uuid-44f69ff0-26fc-45b3-bdca-bd6c6127c634" x1="4214.17" y1="2655.6" x2="4484.86" y2="2902.34" xlink:href="#uuid-93bdb87c-5762-4223-98da-eb34089a1f02"/>
    <linearGradient id="uuid-be8a3516-d940-41e7-a5b2-4f6f90bfe6fa" x1="4687.5" y1="2133.66" x2="4588.57" y2="2570.4" xlink:href="#uuid-93bdb87c-5762-4223-98da-eb34089a1f02"/>
    <linearGradient id="uuid-15ea7f6e-75c6-4c82-afc8-173bf962acab" x1="4660.52" y1="1896.82" x2="4974.43" y2="1896.82" gradientUnits="userSpaceOnUse">
      <stop offset="0" stop-color="#133585"/>
      <stop offset="1" stop-color="#2374a3"/>
    </linearGradient>
    <linearGradient id="uuid-3d1bc342-9aaf-432f-9caf-bf1bdab24068" x1="4497.47" y1="1750.79" x2="4623.49" y2="2097.96" xlink:href="#uuid-93bdb87c-5762-4223-98da-eb34089a1f02"/>
    <linearGradient id="uuid-7e0a5346-97f1-43d0-be99-63f10b80943d" x1="4620.79" y1="1913.37" x2="5256.98" y2="2220.58" xlink:href="#uuid-93bdb87c-5762-4223-98da-eb34089a1f02"/>
    <linearGradient id="uuid-4b6de865-9f30-4fc2-b2b3-359f32028d08" x1="5103.04" y1="1667.82" x2="5500" y2="1667.82" xlink:href="#uuid-15ea7f6e-75c6-4c82-afc8-173bf962acab"/>
    <linearGradient id="uuid-76f1da9e-162d-4498-af83-1ddb59ee460f" x1="5036.63" y1="2234.04" x2="4986.47" y2="1824.38" xlink:href="#uuid-93bdb87c-5762-4223-98da-eb34089a1f02"/>
    <linearGradient id="uuid-143c7e0f-7ff7-4311-ab62-9cea13dcfc28" x1="1442.64" y1="2070.11" x2="1683.1" y2="2070.11" xlink:href="#uuid-93bdb87c-5762-4223-98da-eb34089a1f02"/>
    <linearGradient id="uuid-c1cdb30a-e6cb-4730-85a4-25197b08e11a" x1="1427.59" y1="1821.17" x2="1642.75" y2="1821.17" xlink:href="#uuid-93bdb87c-5762-4223-98da-eb34089a1f02"/>
    <linearGradient id="uuid-99d72efb-8e05-4dd0-8b11-78afcf8ea1b4" x1="1504.02" y1="1665.59" x2="1587.2" y2="1665.59" xlink:href="#uuid-93bdb87c-5762-4223-98da-eb34089a1f02"/>
    <linearGradient id="uuid-023a5753-64a7-42c7-b0c8-f34c0b9eafe3" x1="1362.45" y1="2504.5" x2="1522.83" y2="2504.5" xlink:href="#uuid-15ea7f6e-75c6-4c82-afc8-173bf962acab"/>
    <linearGradient id="uuid-1f2d34ea-4c93-402d-a042-547382956dea" x1="2803.76" y1="2505.57" x2="2668.67" y2="3745.29" gradientUnits="userSpaceOnUse">
      <stop offset="0" stop-color="#154991"/>
      <stop offset="1" stop-color="#2b8fad"/>
    </linearGradient>
    <linearGradient id="uuid-ca30a7ff-925c-4524-81e6-c197e0ea74fa" x1="861.96" y1="2391.34" x2="1058.19" y2="1320.25" xlink:href="#uuid-93bdb87c-5762-4223-98da-eb34089a1f02"/>
    <linearGradient id="uuid-dee8de03-a659-4f3b-8ec8-6f59c93ba2e9" x1="2370.99" y1="2672.18" x2="2264.78" y2="3646.87" xlink:href="#uuid-1f2d34ea-4c93-402d-a042-547382956dea"/>
    <radialGradient id="uuid-a6299176-bbca-4fb8-961e-c468c6746092" cx="1073.45" cy="2636.89" fx="1073.45" fy="2636.89" r="41.92" gradientTransform="translate(-20 4.93)" gradientUnits="userSpaceOnUse">
      <stop offset="0" stop-color="#3fd6ff"/>
      <stop offset="1" stop-color="#1a71ad"/>
    </radialGradient>
    <radialGradient id="uuid-b1b292bd-a90d-4ea9-958a-771bf8c56a42" cx="1155.06" cy="2585.93" fx="1155.06" fy="2585.93" r="25.21" xlink:href="#uuid-a6299176-bbca-4fb8-961e-c468c6746092"/>
    <radialGradient id="uuid-a678e130-a4a2-4776-a42a-2e1714e9c2ef" cx="1268.86" cy="2493.07" fx="1268.86" fy="2493.07" r="20.34" xlink:href="#uuid-a6299176-bbca-4fb8-961e-c468c6746092"/>
    <radialGradient id="uuid-3663f873-7b5c-4c03-8e88-c15de713b163" cx="1250.1" cy="2774.77" fx="1250.1" fy="2774.77" r="37.59" xlink:href="#uuid-a6299176-bbca-4fb8-961e-c468c6746092"/>
    <radialGradient id="uuid-e1b0cb93-2e41-4479-b573-971df8b5add9" cx="1087.84" cy="2854.5" fx="1087.84" fy="2854.5" r="33.4" xlink:href="#uuid-a6299176-bbca-4fb8-961e-c468c6746092"/>
    <radialGradient id="uuid-b6389967-d620-4e9b-8104-6549ab54adc6" cx="1092.84" cy="2485.25" fx="1092.84" fy="2485.25" r="21.92" xlink:href="#uuid-a6299176-bbca-4fb8-961e-c468c6746092"/>
    <radialGradient id="uuid-54097608-0e13-47c6-9687-7d6479102792" cx="977.15" cy="2539.96" fx="977.15" fy="2539.96" r="46.67" xlink:href="#uuid-a6299176-bbca-4fb8-961e-c468c6746092"/>
    <radialGradient id="uuid-3a85a929-a6e1-47ad-bbad-45ad74299585" cx="984.66" cy="2338.61" fx="984.66" fy="2338.61" r="38.71" xlink:href="#uuid-a6299176-bbca-4fb8-961e-c468c6746092"/>
    <radialGradient id="uuid-39c54f66-8b61-4454-a733-92efa9819b08" cx="1173.5" cy="2296.72" fx="1173.5" fy="2296.72" r="41.58" xlink:href="#uuid-a6299176-bbca-4fb8-961e-c468c6746092"/>
    <radialGradient id="uuid-c052e419-9926-4fbb-ad6b-ab6b7e78ef38" cx="1166.79" cy="2135.64" fx="1166.79" fy="2135.64" r="15.92" xlink:href="#uuid-a6299176-bbca-4fb8-961e-c468c6746092"/>
    <radialGradient id="uuid-62ab8312-85fa-4401-b4a5-aad295898b96" cx="1094.09" cy="2358" fx="1094.09" fy="2358" r="32.54" xlink:href="#uuid-a6299176-bbca-4fb8-961e-c468c6746092"/>
    <radialGradient id="uuid-686ba2e3-dd66-45a0-b784-079c534ecf6f" cx="2083.08" cy="2295.31" fx="2083.08" fy="2295.31" r="26.15" gradientTransform="translate(5004.42 4.93) rotate(-180) scale(1.01 -1)" xlink:href="#uuid-a6299176-bbca-4fb8-961e-c468c6746092"/>
    <radialGradient id="uuid-66b66f7d-5e99-44bf-9b6a-5c0f34edd820" cx="2134" cy="2263.51" fx="2134" fy="2263.51" r="15.73" gradientTransform="translate(5004.42 4.93) rotate(-180) scale(1.01 -1)" xlink:href="#uuid-a6299176-bbca-4fb8-961e-c468c6746092"/>
    <radialGradient id="uuid-734f6272-3427-4454-83ac-2e1b55ac3ede" cx="2205.01" cy="2205.57" fx="2205.01" fy="2205.57" r="12.69" gradientTransform="translate(5004.42 4.93) rotate(-180) scale(1.01 -1)" xlink:href="#uuid-a6299176-bbca-4fb8-961e-c468c6746092"/>
    <radialGradient id="uuid-3fdd9d47-6815-43e2-8cda-3d8c7c8300f3" cx="2193.31" cy="2381.34" fx="2193.31" fy="2381.34" r="23.45" gradientTransform="translate(5004.42 4.93) rotate(-180) scale(1.01 -1)" xlink:href="#uuid-a6299176-bbca-4fb8-961e-c468c6746092"/>
    <radialGradient id="uuid-84ac14e0-81d1-426e-837b-552e71d6b982" cx="2092.06" cy="2431.09" fx="2092.06" fy="2431.09" r="20.84" gradientTransform="translate(5004.42 4.93) rotate(-180) scale(1.01 -1)" xlink:href="#uuid-a6299176-bbca-4fb8-961e-c468c6746092"/>
    <radialGradient id="uuid-484f14b2-d581-4958-8751-79e4d672d6d4" cx="2095.18" cy="2200.7" fx="2095.18" fy="2200.7" r="13.67" gradientTransform="translate(5004.42 4.93) rotate(-180) scale(1.01 -1)" xlink:href="#uuid-a6299176-bbca-4fb8-961e-c468c6746092"/>
    <radialGradient id="uuid-69f3fab2-eae5-400e-b5f8-1bd8f3cb9a96" cx="2023" cy="2234.84" fx="2023" fy="2234.84" r="29.12" gradientTransform="translate(5004.42 4.93) rotate(-180) scale(1.01 -1)" xlink:href="#uuid-a6299176-bbca-4fb8-961e-c468c6746092"/>
    <radialGradient id="uuid-6b92a085-5529-4f4b-8723-b68999a5b001" cx="2027.68" cy="2109.2" fx="2027.68" fy="2109.2" r="24.15" gradientTransform="translate(5004.42 4.93) rotate(-180) scale(1.01 -1)" xlink:href="#uuid-a6299176-bbca-4fb8-961e-c468c6746092"/>
    <radialGradient id="uuid-40878dc0-55f7-466d-a5b5-c24a6b8c190c" cx="2145.51" cy="2083.06" fx="2145.51" fy="2083.06" r="25.95" gradientTransform="translate(5004.42 4.93) rotate(-180) scale(1.01 -1)" xlink:href="#uuid-a6299176-bbca-4fb8-961e-c468c6746092"/>
    <radialGradient id="uuid-7d63f9ff-61ad-49b3-a27b-d44792d06703" cx="2141.32" cy="1982.56" fx="2141.32" fy="1982.56" r="9.93" gradientTransform="translate(5004.42 4.93) rotate(-180) scale(1.01 -1)" xlink:href="#uuid-a6299176-bbca-4fb8-961e-c468c6746092"/>
    <radialGradient id="uuid-bf71f39b-098a-48de-81ca-e4eeaa8be134" cx="2095.96" cy="2121.3" fx="2095.96" fy="2121.3" r="20.3" gradientTransform="translate(5004.42 4.93) rotate(-180) scale(1.01 -1)" xlink:href="#uuid-a6299176-bbca-4fb8-961e-c468c6746092"/>
    <radialGradient id="uuid-c94ce2d8-1d86-45f0-b094-444cce47d0a0" cx="4421.57" cy="1436.94" fx="4421.57" fy="1436.94" r="26.15" gradientTransform="translate(5004.42 4.93) rotate(-180) scale(1.01 -1)" xlink:href="#uuid-a6299176-bbca-4fb8-961e-c468c6746092"/>
    <radialGradient id="uuid-a25e26d6-4509-485e-a5de-ae4c6fa08a34" cx="4516.35" cy="1378.23" fx="4516.35" fy="1378.23" r="15.73" gradientTransform="translate(5004.42 4.93) rotate(-180) scale(1.01 -1)" xlink:href="#uuid-a6299176-bbca-4fb8-961e-c468c6746092"/>
    <radialGradient id="uuid-49a182aa-2519-465f-aa3d-c80ebf3485d2" cx="4587.52" cy="1274.34" fx="4587.52" fy="1274.34" r="12.69" gradientTransform="translate(5004.42 4.93) rotate(-180) scale(1.01 -1)" xlink:href="#uuid-a6299176-bbca-4fb8-961e-c468c6746092"/>
    <radialGradient id="uuid-a98d1726-3f27-439d-bcc0-384080e6d2f1" cx="4500.06" cy="1475.38" fx="4500.06" fy="1475.38" r="23.45" gradientTransform="translate(5004.42 4.93) rotate(-180) scale(1.01 -1)" xlink:href="#uuid-a6299176-bbca-4fb8-961e-c468c6746092"/>
    <radialGradient id="uuid-7b1696e3-c824-4ead-ac37-9d8f8d01add9" cx="4453.08" cy="1601.83" fx="4453.08" fy="1601.83" r="13.08" gradientTransform="translate(5004.42 4.93) rotate(-180) scale(1.01 -1)" xlink:href="#uuid-a6299176-bbca-4fb8-961e-c468c6746092"/>
    <radialGradient id="uuid-afde45ea-79e5-4121-b2c3-53ed9d775e34" cx="4402.15" cy="1525.11" fx="4402.15" fy="1525.11" r="13.08" gradientTransform="translate(5004.42 4.93) rotate(-180) scale(1.01 -1)" xlink:href="#uuid-a6299176-bbca-4fb8-961e-c468c6746092"/>
    <radialGradient id="uuid-6d494559-8cdc-497a-a2a3-d3f880cd6f26" cx="4461.29" cy="1333.56" fx="4461.29" fy="1333.56" r="13.67" gradientTransform="translate(5004.42 4.93) rotate(-180) scale(1.01 -1)" xlink:href="#uuid-a6299176-bbca-4fb8-961e-c468c6746092"/>
    <radialGradient id="uuid-02ddbd50-4fd8-4d09-a858-eb4f86a68744" cx="4408.11" cy="1288.14" fx="4408.11" fy="1288.14" r="24.15" gradientTransform="translate(5004.42 4.93) rotate(-180) scale(1.01 -1)" xlink:href="#uuid-a6299176-bbca-4fb8-961e-c468c6746092"/>
    <radialGradient id="uuid-2a812aba-7be6-4923-8195-d41aa4a13566" cx="4480.47" cy="1143.61" fx="4480.47" fy="1143.61" r="25.95" gradientTransform="translate(5004.42 4.93) rotate(-180) scale(1.01 -1)" xlink:href="#uuid-a6299176-bbca-4fb8-961e-c468c6746092"/>
    <radialGradient id="uuid-eefe9653-a972-4896-8076-3be5ab71972c" cx="4448.08" cy="1076.6" fx="4448.08" fy="1076.6" r="9.93" gradientTransform="translate(5004.42 4.93) rotate(-180) scale(1.01 -1)" xlink:href="#uuid-a6299176-bbca-4fb8-961e-c468c6746092"/>
    <radialGradient id="uuid-6e41cdce-104e-49b9-a0b3-f9c071bea5cd" cx="4498.21" cy="1258.19" fx="4498.21" fy="1258.19" r="20.3" gradientTransform="translate(5004.42 4.93) rotate(-180) scale(1.01 -1)" xlink:href="#uuid-a6299176-bbca-4fb8-961e-c468c6746092"/>
    <radialGradient id="uuid-b3261dee-da77-448a-ab88-b1e769d13730" cx="35.18" cy="1126.84" fx="35.18" fy="1126.84" r="20.8" gradientTransform="translate(5004.42 4.93) rotate(-180) scale(1.01 -1)" xlink:href="#uuid-a6299176-bbca-4fb8-961e-c468c6746092"/>
    <radialGradient id="uuid-5efcdd36-2dd1-452c-9a3d-b7d1d148f760" cx="75.66" cy="1101.56" fx="75.66" fy="1101.56" r="12.51" gradientTransform="translate(5004.42 4.93) rotate(-180) scale(1.01 -1)" xlink:href="#uuid-a6299176-bbca-4fb8-961e-c468c6746092"/>
    <radialGradient id="uuid-74a722a9-69c3-4b50-88aa-f076bc36d03b" cx="132.13" cy="1055.49" fx="132.13" fy="1055.49" r="10.09" gradientTransform="translate(5004.42 4.93) rotate(-180) scale(1.01 -1)" xlink:href="#uuid-a6299176-bbca-4fb8-961e-c468c6746092"/>
    <radialGradient id="uuid-9ad42244-368e-4ca9-8020-d77bdde695af" cx="122.82" cy="1195.25" fx="122.82" fy="1195.25" r="18.65" gradientTransform="translate(5004.42 4.93) rotate(-180) scale(1.01 -1)" xlink:href="#uuid-a6299176-bbca-4fb8-961e-c468c6746092"/>
    <radialGradient id="uuid-413aa84e-2912-46bc-883b-50245959754d" cx="77.47" cy="1290.8" fx="77.47" fy="1290.8" r="9.66" gradientTransform="translate(5004.42 4.93) rotate(-180) scale(1.01 -1)" xlink:href="#uuid-a6299176-bbca-4fb8-961e-c468c6746092"/>
    <radialGradient id="uuid-ade6e5a2-b24c-4ef7-80ff-cb8cd2ccf2cc" cx="-.73" cy="1053.65" fx="-.73" fy="1053.65" r="10.87" gradientTransform="translate(5004.42 4.93) rotate(-180) scale(1.01 -1)" xlink:href="#uuid-a6299176-bbca-4fb8-961e-c468c6746092"/>
    <radialGradient id="uuid-c83707a9-c2df-4165-93dc-6ba9c64feabe" cx="84.82" cy="958.07" fx="84.82" fy="958.07" r="20.63" gradientTransform="translate(5004.42 4.93) rotate(-180) scale(1.01 -1)" xlink:href="#uuid-a6299176-bbca-4fb8-961e-c468c6746092"/>
    <radialGradient id="uuid-6a957928-135b-4f94-8631-bacef552b0de" cx="81.48" cy="878.15" fx="81.48" fy="878.15" r="7.9" gradientTransform="translate(5004.42 4.93) rotate(-180) scale(1.01 -1)" xlink:href="#uuid-a6299176-bbca-4fb8-961e-c468c6746092"/>
    <radialGradient id="uuid-432465c1-a307-49ff-9bec-30bccf5f9b8c" cx="45.42" cy="988.47" fx="45.42" fy="988.47" r="16.14" gradientTransform="translate(5004.42 4.93) rotate(-180) scale(1.01 -1)" xlink:href="#uuid-a6299176-bbca-4fb8-961e-c468c6746092"/>
  </defs>
  <g class="uuid-08c2d48c-417f-4e2e-b9a6-bc96955581e6">
    <g id="uuid-5e9be091-b99a-44e7-b109-405273f7e02c" data-name="_x31_">
      <g>
        <rect class="uuid-a1c4cb4c-39c2-4655-8cc7-62dde9572e8a" width="5500" height="3200"/>
        <path class="uuid-ae28d313-6e1b-4d85-8c6d-f75a02d76363" d="M332.76,1282.04c569.47-144.24,2112.37,474.61,2642.9,279.18,530.53-195.43,2078.3-102.37,2078.3-102.37,0,0-2107.51,297.79-2594.23,176.81-486.72-120.98-1956.62-83.75-2068.57-60.49-111.95,23.27-58.41-293.14-58.41-293.14Z"/>
        <path class="uuid-3b7c75ea-8fa7-4929-9337-a300ed1c43f4" d="M1049.49,2114.02s202.63-8.47,208.33,8.47c5.71,16.95-2.85,64.97,0,76.27,2.85,11.3,51.37,76.27,136.99,104.51,85.62,28.25,459.48,90.39,610.73,93.22,151.26,2.82,293.95,16.95,319.63,5.65,25.68-11.3,0-56.49-2.85-76.27-2.85-19.77,51.37-5.65,82.76-8.47,31.39-2.82,25.68-31.07,37.1-48.02,11.42-16.95,62.79-31.07,62.79-5.65s-17.12,197.73,22.83,242.92c39.95,45.2,410.96,107.34,459.47,76.27,48.52-31.07,97.03-132.76,128.43-141.24,31.39-8.47,97.03-25.42,142.69-8.47,45.66,16.95,131.28,31.07,219.75-25.42,88.47-56.49,59.93-169.48,171.23-220.33,111.3-50.84,493.72-254.22,530.82-293.77,37.1-39.55,19.98-93.22,19.98-127.11s-139.84-42.37-154.11-48.02c-14.27-5.65,2.85-31.07,17.12-36.72,14.27-5.65,108.45-14.12,128.42-16.95s19.98-107.34,17.12-129.94c-2.85-22.6-34.25-33.9-34.25-53.67s14.27-25.42,28.54-25.42,62.78,14.12,182.65-2.82c119.86-16.95,236.87-39.55,254-73.44,17.12-33.9-105.59-33.9-105.59-50.85s2.85-28.25,11.42-45.19c8.56-16.95,145.55-11.3,191.21-5.65,45.66,5.65,111.3,33.9,216.9,28.25,105.59-5.65,288.24-5.65,288.24-5.65h151.26s-174.09,1708.94-179.8,1700.47c-5.71-8.47-4172.38,73.44-4172.38,73.44l-211.19-64.97,151.26-878.48,68.49-16.95Z"/>
        <path class="uuid-e303f591-5159-4521-98d8-09e263c5b450" d="M435.78,1549.34c406.32-128.23,1536.95,810.16,2178.81,577.02,641.87-233.14,2196.48-256.45,2196.48-256.45,0,0-765.53-128.23-1277.85-58.28-512.32,69.94-1207.18,157.37-1690.05,52.46-482.87-104.91-1036.41-472.11-1407.4-314.74Z"/>
        <path class="uuid-4afae467-10ff-4164-ba23-256735bc7611" d="M2642.75,3026.6L0,3003.87v-1927.14c90.71-11.17,375.68-43.16,379.96-1.29,4.93,49.71-60.34,109.43,55.28,208.97,115.62,99.67,175.97,219.12,251.49,209.1,75.4-9.89,110.56,44.83,130.68,89.65,20.24,44.83,60.47,109.43,60.47,109.43,0,0,110.56-129.34,145.86-134.35,35.17-5.01,45.16,29.93,65.27,59.72,20.11,29.93-15.05,194.2-15.05,194.2,0,0,60.34,19.91,65.4,84.64,5.06,64.61-23.62,67.94-23.62,110.84s28.16,57.8,10.77,87.73c-17.26,29.93,8.69,51.38,0,66.4-8.56,14.9-66.96,12.84-77.86,21.32-10.77,8.61,64.88,30.05,64.88,30.05l10.9,27.74,62.68-8.48s-30.24,40.59,10.77,77.07c41.14,36.35,504.02,109.18,536.47,156.19,32.44,47.14,77.86,85.67,166.49,49.32,88.63-36.48,62.68,38.53,198.94,53.43,136.26,15.03,248.77,92.09,289.9,226.96,41.01,134.86,253.05,231.2,253.05,231.2Z"/>
        <path class="uuid-88e3ae42-c4bb-44f3-86b9-4f9c1941ec20" d="M318.79,846.43c-153.93,44.83-222.35,144.37-192.45,283.73,22.51,105.07-76.25,68.72-126.35,44.57v-433.62c182.07,4.11,241.11,61.01,310.19,65.51,77.02,5.01,162.54-5.01,8.61,39.82Z"/>
        <path class="uuid-421d5edc-cbd9-4bf4-9a78-57d445372b41" d="M5500,790.95v2286.26l-2278.74-163.76s8.56-90.42,11.42-115.85c2.85-25.43-85.65-56.51-108.36-87.6-22.84-31.08-5.71-149.64,2.85-177.89,8.56-28.26,156.89,11.3,205.42-2.83,48.53-14.13,253.96-70.64,291.07-98.9,37.11-28.26,91.36-42.38,125.62-25.43,34.26,16.95,71.37,31.08,99.92,16.95,28.42-14.13,134.05-290.92,156.89-316.35,22.84-25.43,77.08-48.04,111.34-62.17,34.26-14.13,111.21,28.26,148.33,0,37.11-28.26,45.68-118.68,71.37-135.51,25.69-16.95,48.53-31.08,48.53-31.08,0,0-8.56-194.97-8.56-243.01s111.34-8.48,182.72-39.56c71.24-30.95,162.6-127.03,231.12-149.64,68.52-22.61,322.47-39.56,353.88-81.94,31.41-42.39-37.11-81.95-8.56-107.38,28.55-25.43,77.08-11.3,51.39-129.86-25.69-118.68-131.33-144.11-114.2-206.28,17.13-62.17,85.65-115.73,85.65-115.73l340.9-12.46Z"/>
        <path class="uuid-e303f591-5159-4521-98d8-09e263c5b450" d="M792.81,2098.24c677.2-343.88,1407.4,396.33,1978.6,361.36,571.2-34.97,1548.73-442.96,1854.94-93.26-376.88-40.8-1065.85-11.66-1372.06,413.82-306.21,425.48-1130.63-343.88-1466.28-501.25-335.65-157.37-724.31,215.65-724.31,215.65l-270.88-396.33Z"/>
        <path class="uuid-65a503c3-cc24-43b3-a99c-3c6e0f1633e3" d="M5146.12,1757.73s-40.75,719.15-170.52,939.42c-129.77,220.15-1749.81,432.98-1749.81,432.98l-463.41-88.11s33.35-58.7,92.65-88.11c59.3-29.28,674.67-146.68,671.04-157.73-3.76-11.05,25.95-91.71,51.91-102.75,0,0,.26-.13.91-.38,29.46-10.79,228.91-17.98,228.91-17.98,0,0,.26-.9.78-2.44,0,0,.13-.39.39-.9,12.46-33.78,118.35-321.23,159.36-381.34,2.33-3.47,4.54-6.16,6.36-7.96,36.98-36.61,111.21-102.75,148.2-102.75,11.03,0,30.37,32.49,51.91,78.22,51,107.76,114.98,288.74,114.98,288.74l174.28,7.32s-51.39-224.9-26.34-249.05l.39-.39c25.95-22.09,96.42-47.78,92.65-58.7-3.76-11.05-100.05-201.91-74.1-260.61,25.95-58.7,181.55-135.76,203.87-132.04,22.19,3.59,59.31,40.33,59.31,40.33,0,0,70.46-168.77,118.61-205.51,48.27-36.73,126.14-25.69,144.56-21.96,18.56,3.6,163.12,91.71,163.12,91.71Z"/>
        <path class="uuid-731b25d3-3c74-404f-b186-16ff7be0d480" d="M5500,1158.8v2041.2h-975.6l-1313.52-165.3c11.16-7.32,1119.65-183.54,1216.07-220.15,96.42-36.73,137.17-84.39,163.12-135.76,23.36-46.37,4.54-179.18,35.95-226.31,3.37-5.14,7.4-9.38,12.2-12.2,47.5-28.9,181.29-7.96,277.32-56.39,1.56-.77,3.11-1.54,4.54-2.31,93.69-49.96,155.72-619.48,182.98-682.03.78-1.93,1.56-3.34,2.34-4.24,25.95-33.01,144.56-66.02,144.56-66.02,0,0,51.91-363.23,92.78-414.61,25.04-31.6,101.87-47.91,157.28-55.87Z"/>
        <path class="uuid-30710445-66a4-478b-a0d3-1d4f9714ea70" d="M5500,2491.13v708.87h-555.54c-364.78-65.38-759.93-138.72-759.93-138.72,207.63-12.59,423.57-79.63,525.31-142.57,99.79-61.78-21.02,90.81-25.31,96.33,7.14-4.75,301.32-199.73,351.41-87.98,50.87,113.29,156.76,268.31,228.78,12.59,66.44-236.08,129.38-418.59,235.27-448.52Z"/>
        <path class="uuid-1e8ca2b5-35d1-48a5-8670-56e93ea41e80" d="M2424.99,3012.6l-2033.35-96.33-340.77-16.18-50.87-2.44v-1260.27c40.49-7.96,113.29-21.58,187.52-33.39,106.15-16.7,215.68-29.29,239.16-15.03,48.27,29.28,118.61,168.77,118.61,168.77,0,0,103.82,0,163.12,18.37,7.14,2.18,14.92,5.01,23.23,8.48,59.3,23.76,139.37,73.08,162.21,105.19,25.95,36.73,40.75,326.63,40.75,326.63,0,0,82.79,242.5,148.2,287.71,3.89,2.57,7.66,4.62,11.29,5.78,66.7,22.09,114.84-3.6,133.4-25.56,18.56-22.09,140.93-271.65,144.56-319.31,3.5-45.08,33.61-277.31,55.54-320.98,1.3-2.57,2.6-4.5,3.76-5.65,22.32-21.96,66.83-54.97,66.83-54.97,0,0,.13-2.31.13-6.42.65-16.18,2.47-60.5,5.71-104.94.65-10.28,1.43-20.42,2.34-30.31,4.15-46.24,9.99-85.29,17.78-82.2,18.43,7.32,40.75,29.41,55.54,55.1,4.93,8.61,6.62,30.06,7.27,55.61.13,6.04.26,12.33.26,18.75.65,43.03.26,91.06,8.56,108.66.78,1.67,1.56,3.08,2.47,4.11,18.56,21.96,44.51,54.97,44.51,54.97l-11.16,172.5s.13,0,.26.13c3.63,2.95,46.33,37.51,51.26,88.5.26,1.03.26,2.05.39,3.08,3.76,55.1-48.14,399.97-40.75,425.66,7.4,25.69,36.98,55.1,85.26,58.7,48.15,3.73,196.47,3.73,211.26,25.69,14.92,22.09,11.16,132.17,37.11,150.53,25.95,18.24,137.17-3.72,200.23,3.6,62.94,7.32,159.36,69.74,196.47,99.16,37.11,29.29,51.91,128.31,51.91,128.31Z"/>
        <path class="uuid-30710445-66a4-478b-a0d3-1d4f9714ea70" d="M331.82,2287.16c-68.13-77.71-209.32-41.49-209.32-41.49,0,0,282.51,507.6,303.53,616.39,4.93,25.43-9.47,42.77-34.39,54.2-81.11,37.38-274.46,13.1-274.46,13.1l-66.31-29.29-50.87-22.48v-1240.23c40.49-7.96,113.29-21.58,187.52-33.39-57.1,122.15-17.91,306.08-17.91,377.62,0,82.84,62.68,155.41,172.59,233.12,109.91,77.58,214.64,321.1,235.53,398.81,20.89,77.71-177.91-248.66-245.91-326.37Z"/>
        <path class="uuid-0d8b619f-2528-42fc-b79f-6e00422f2314" d="M547.36,1757.73c0,22.09.39,46.88,1.69,71.54,3.76,71.54,115.75,217.58,119.65,313.01,3.76,95.56,3.76,316.99,3.76,316.99,0,0-30.76-194.72-69.43-274.99-38.54-80.15-104.07-129.73-134.96-202.3-30.89-72.57-41.4-393.03-41.4-393.03l13.89,10.79.13.13,106.67,157.86Z"/>
        <g>
          <path class="uuid-21720376-cb14-4491-99ba-107336a9dd13" d="M2535.98,2532.14l-55.65-112.56,123.4-71.85,111.31,52.69,409.43-172.18,18.86-220.59,36.29,26.34s-33.88,205.97-36.29,217.94c-2.42,11.97,4.84,222.73-125.82,332.9-130.66,110.17-481.52-52.69-481.52-52.69Z"/>
          <polygon class="uuid-21720376-cb14-4491-99ba-107336a9dd13" points="2848.1 2366.35 2502.19 1469.79 2527.04 1458.03 2882.89 2350.46 2848.1 2366.35"/>
          <polygon class="uuid-21720376-cb14-4491-99ba-107336a9dd13" points="2689.37 1481.21 2664.93 1490.45 2581.98 1521.17 2493.28 1554.06 2399.36 1589.12 2384.8 1594.56 2376.29 1577.98 2413.91 1563.3 2618.79 1483.93 2683.6 1458.92 2689.37 1481.21"/>
          <path class="uuid-21720376-cb14-4491-99ba-107336a9dd13" d="M2674.54,1623.64s-10.16-30.17-25.27-22.56c-15.38,7.61-12.91,62.52-12.91,62.52,0,0-12.63-135.09-30.21-130.2-17.85,5.16-12.63,57.62-12.63,57.62l-11.54-69.86-1.1-7.61-85.96,29.9-1.65,10.6-8.51,59.53s-10.16-42.4-40.65-27.45c-24.99,12.5-24.17,76.39-23.34,97.86-1.1-18.21-5.77-65.78-21.42-94.87-1.1-1.9-2.2-3.81-3.3-5.44l17.85-20.39,204.88-79.37,45.59-.54.55,7.07,9.61,133.19Z"/>
          <polygon class="uuid-21720376-cb14-4491-99ba-107336a9dd13" points="2311.29 1947.04 2322.61 1966.63 3026.79 1658.73 3015.48 1643.33 2311.29 1947.04"/>
          <polygon class="uuid-21720376-cb14-4491-99ba-107336a9dd13" points="2540.37 2228.35 2555.92 2239.55 3018.31 2004.42 3005.58 1989.03 2540.37 2228.35"/>
          <path class="uuid-21720376-cb14-4491-99ba-107336a9dd13" d="M2344.72,1948.41c21.66,40.35,20.38,186.61,20.38,186.61,0,0-1.27-116,15.29-132.39,16.56-16.39,22.93,35.31,22.93,35.31,0,0,6.37-18.91,11.46-22.7,15.15-11.25,28.03,225.7,28.03,225.7,0,0-6.37-253.44,8.92-286.22,15.29-32.78,39.49-10.09,39.49-10.09l-2.55-60.52-143.95,64.31Z"/>
          <path class="uuid-21720376-cb14-4491-99ba-107336a9dd13" d="M2577.84,1847.54c31.85-2.52,54.78,174,54.78,174,0,0-7.64-95.83,6.37-124.83,14.01-29,20.38,44.13,20.38,44.13,0,0,16.56-117.26,48.41-132.39,31.85-15.13,78.98-6.3,78.98-6.3l-3.82-41.61-205.1,87Z"/>
          <path class="uuid-21720376-cb14-4491-99ba-107336a9dd13" d="M2995.58,1667.13v85.9s-26.64-12.78-43.12,2.45c-16.75,15.22-5.22,75.57-5.22,75.57,0,0-8.97-42.85-25.44-27.63-10.44,9.52-11.04,156.62-6.37,201.74-4.67-28.54-14.05-129.26-26.68-122.19-15.1,8.15-19.22,32.08-20.05,47.57.82-50.01,1.1-212.29-32.13-195.17,6.87-6.8,23.89-15.77,44.49-25.01,2.47,20.93,5.18,32.49,17.81,40.1,13.46,8.16,27.51-33.03,30.8-59.67,34.88-13.32,65.91-23.65,65.91-23.65Z"/>
          <path class="uuid-21720376-cb14-4491-99ba-107336a9dd13" d="M2570.63,2224.89c22.23,12.22,33.34,83.11,33.34,79.44s-16.05-58.66,3.71-75.78c19.76-17.11,44.45,125.88,44.45,125.88,0,0-9.88-160.1,3.71-172.33-24.7,1.22-85.2,42.78-85.2,42.78Z"/>
          <path class="uuid-21720376-cb14-4491-99ba-107336a9dd13" d="M2825,2094.12c28.4-2.45,41.98,37.89,41.98,37.89,0,0-14.82-30.55,6.18-47.66,20.99-17.11,50.63-9.78,50.63-9.78,0,0,16.05-46.44,28.4,18.33,11.11-51.33,37.04-58.66,37.04-58.66l-3.71-22-160.52,81.89Z"/>
        </g>
        <path class="uuid-daf21322-c06c-45d4-9c9f-607c1a9ea9ca" d="M3985.34,2872.09s-347.91,41.87-383.08-4.75c-35.3-46.5-24.27-173.91-24.27-173.91,0,0,.26-.13.91-.38,29.46-10.79,228.91-17.98,228.91-17.98,31.14,21.83,177.52,197.03,177.52,197.03Z"/>
        <path class="uuid-b4c97b56-897a-477d-a65f-ddbc52e67e71" d="M3985.34,2872.09l-177.52-197.03s.26-.9.78-2.44c10.9-29.41,118.35-321.62,159.75-382.24,13.88,16.7,32.57,56.51,49.44,100.06-9.86,103.78-65.4,270.11-72.93,292.33,8.69-20.81,69.82-166.59,103.95-200.37,4.15,14.64,7.4,27.74,9.34,38.4,11.81,62.81-72.8,351.29-72.8,351.29Z"/>
        <path class="uuid-d321416f-e5de-44cf-9121-a9a493c50948" d="M4283.81,2585.9c63.46-4.65,162.17,41.87,162.17,41.87,0,0-110.46,146.55-143.36,174.47-32.9,27.91-136.31,48.85-136.31,48.85,0,0,133.96-111.66,143.37-148.88,9.4-37.22,7.05-72.11,7.05-72.11,0,0-65.81,116.31-96.36,132.59-30.55,16.28,51.7-79.09,63.46-176.79Z"/>
        <path class="uuid-78258edd-f87c-494a-b78d-6ed0c3e4e11b" d="M4861.93,2295.13s-314.56,44.18-424.22,9.76l.39-.39c25.95-22.09,96.42-47.78,92.65-58.7,87.08,41.36,331.17,49.32,331.17,49.32Z"/>
        <path class="uuid-0a1a48de-d5c2-4675-afe7-b569555ac49b" d="M4974.43,1934.46s-240.46,0-246.04,5.52c-5.58,5.52-57.75-36.86-57.75-36.86l-10.12-49.96c22.19,3.59,59.31,40.33,59.31,40.33l254.61,40.97Z"/>
        <path class="uuid-6a1bb1a0-d391-4e42-8224-ab8f5218c7bb" d="M4670.65,1903.12s-189.98,114.31-213.99,82.07c25.95-58.7,181.55-135.76,203.87-132.04l10.12,49.96Z"/>
        <path class="uuid-39ae4833-0bdc-4539-803e-042cbdcd5759" d="M4659.48,2034.09c-13.04,16.6-3.73,42.42-3.73,42.42,0,0,290.67-33.2,313.02-40.57,22.36-7.38,55.9-73.77,55.9-73.77,0,0-229.18,7.38-264.58,11.06-35.4,3.69-100.62,60.86-100.62,60.86Z"/>
        <path class="uuid-e18da1a2-0444-43e5-b3fe-8a5ea4db6344" d="M5500,1656.9v49.45c-82.4-7.83-304.31-26.46-396.96-6.81.78-1.93,1.56-3.34,2.34-4.24,25.95-33.01,144.56-66.02,144.56-66.02,27.77,7.19,170.39,20.55,250.06,27.61Z"/>
        <path class="uuid-a10da7b0-af1d-4f24-bdc7-a2612aa685b4" d="M5500,2452.73c-123.15,1.15-410.72,4.88-412.92,13.74-2.86,11.3,97.07,234.41,91.36,296.57-5.71,62.04-57.1,214.63-57.1,214.63,0,0,14.27-192.15,14.27-217.45s-79.94-293.75-128.47-299.4c-47.75-5.52-291.98-5.65-381.13-8.35,3.37-5.14,7.4-9.38,12.2-12.2,47.5-28.9,181.29-7.96,277.32-56.39,119.52,10.92,452.5,47.65,584.48,62.42v6.42Z"/>
        <path class="uuid-91023332-e2b4-491f-89cb-eb006111b96d" d="M1683.1,2117.88c-33.74,6.16-60.86-24.28-93.82-48.04-42.95-30.96-146.64-48.3-146.64-48.3,0,0,121.21,5.78,188.94,7.71,0,0,.13,0,.26.13,3.63,2.95,46.33,37.51,51.26,88.5Z"/>
        <path class="uuid-031f8c2e-c7bb-41f3-8798-b0c5e50b1218" d="M1642.75,1856.75c-114.59,14.9-185.31,10.28-215.16-12.72,1.3-2.57,2.6-4.5,3.76-5.65,22.32-21.96,66.83-54.97,66.83-54.97,0,0,.13-2.31.13-6.42,39.06,14.9,71.76,20.17,97.46,20.68.78,1.67,1.56,3.08,2.47,4.11,18.56,21.96,44.51,54.97,44.51,54.97Z"/>
        <path class="uuid-0e963a42-2408-4ecf-8e74-cdfe582fa790" d="M1587.2,1689.01c-24.14,1.67-54.11-1.03-83.18-16.95.65-10.28,1.43-20.42,2.34-30.31,24.53,13.74,55.15,22.86,80.59,28.51.13,6.04.26,12.33.26,18.75Z"/>
        <path class="uuid-4752d975-e56f-4b03-b80e-29a3b81b07c2" d="M1522.83,2168.62s-35.21,104.54-68.46,191.65c-33.25,87.12-5.87,154.87-13.69,214.88-7.82,60.01-78.23,247.79-78.23,247.79l64.54,17.42s89.97-201.33,91.93-255.54c1.96-54.2-37.16-100.67-44.99-152.93-7.82-52.27,48.9-263.28,48.9-263.28Z"/>
        <path class="uuid-23048283-3ab8-4b56-b7d4-68fbeafbeca5" d="M5500,3139.12v60.88H0v-402.15c120.42-6.04,313.78-13.23,536.33-16.05,503.24-6.29,1155.98,10.15,1452.51,115.34,512.59,181.75,1851.28,105.96,2149.62,143.86,259.15,32.88,1020.63,77.19,1361.54,98.13Z"/>
        <path class="uuid-b106bbc2-2c17-42db-b262-1cf1bca57ac5" d="M1082.79,2504.1c-60.99-17.73-160.4-103.91-191.8-206.79-35.95-117.27-49.7-373.77-49.7-373.77,0,0,0,207.31-35.82,133.71-27.77-57.03-60.47-204.35-73.84-272.68,59.3,23.76,139.37,73.08,162.21,105.19,25.95,36.73,40.75,326.63,40.75,326.63,0,0,82.79,242.5,148.2,287.71Z"/>
        <path class="uuid-8188818a-04da-413d-a7d9-40d6b135e6a1" d="M4670.78,3200H0v-402.15c120.42-6.04,313.78-13.23,536.33-16.05-182.2,85.16,46.59,163.63,458.86,142.96-446.93,252.13,441.73,20.68,982.35,56.64,540.49,35.96,2359.59,143.98,2681.81,216.04,3.89.9,7.66,1.67,11.42,2.57Z"/>
        <path class="uuid-edcce3d8-0bda-4870-8a15-c820cf68ada8" d="M4174.8,2257.88c-35.43,4.37-149.75,20.29-177.52,47.91-32.05,31.6-179.08,346.28-188.29,365.93,12.46-33.78,118.35-321.23,159.36-381.34,2.33-3.47,4.54-6.16,6.36-7.96,36.98-36.61,111.21-102.75,148.2-102.75,11.03,0,30.37,32.49,51.91,78.22Z"/>
        <g class="uuid-54ace871-7323-4c78-a2ad-efb62a61c609">
          <path class="uuid-7ad7e7fd-c6ec-4b3c-9f35-61a9b89719c4" d="M1099.06,2652.19c0,13.99-11.46,25.33-25.59,25.33s-25.59-11.34-25.59-25.33,11.46-25.33,25.59-25.33,25.59,11.34,25.59,25.33Z"/>
          <path class="uuid-efbfb597-93e7-4272-92c4-82627c1ae586" d="M1167.86,2589.45c0,11.55-9.46,20.92-21.13,20.92s-21.13-9.36-21.13-20.92,9.46-20.92,21.13-20.92,21.13,9.37,21.13,20.92Z"/>
          <path class="uuid-4749f10e-fa18-46f2-b6e7-f9a9cb5fafc6" d="M1276.43,2499.7c0,7.17-5.87,12.98-13.11,12.98s-13.11-5.81-13.11-12.98,5.87-12.98,13.11-12.98,13.11,5.81,13.11,12.98Z"/>
          <path class="uuid-5ed6f929-b86e-4d9c-8866-6922f1afa113" d="M1266.84,2781.63c0,10.62-8.7,19.23-19.42,19.23s-19.43-8.61-19.43-19.23,8.7-19.23,19.43-19.23,19.42,8.61,19.42,19.23Z"/>
          <path class="uuid-1ce69b17-0dd9-4fdd-9e0e-0ec92fbe89c8" d="M1100.29,2858.23c0,10.28-8.42,18.62-18.81,18.62s-18.81-8.33-18.81-18.62,8.42-18.61,18.81-18.61,18.81,8.33,18.81,18.61Z"/>
          <path class="uuid-9814bcf0-633e-44fd-bd8c-6fb4b2e31752" d="M1099.66,2489.18c0,8.93-7.32,16.17-16.34,16.17s-16.34-7.24-16.34-16.17,7.32-16.17,16.34-16.17,16.34,7.24,16.34,16.17Z"/>
          <ellipse class="uuid-63462a63-aa69-4222-a0f1-3bd402e7aeda" cx="979.39" cy="2554.82" rx="32.68" ry="32.35"/>
          <ellipse class="uuid-6c7fb81b-369a-4477-af26-b8a4d1e712d5" cx="980.18" cy="2353.78" rx="26.07" ry="25.8"/>
          <path class="uuid-dfdffec6-a051-4425-a285-323b50beba8f" d="M1198.7,2311.65c0,14.59-11.95,26.41-26.68,26.41s-26.68-11.82-26.68-26.41,11.95-26.41,26.68-26.41,26.68,11.82,26.68,26.41Z"/>
          <path class="uuid-d0f33f66-3530-4137-afc8-950727ce4218" d="M1171.56,2140.7c0,6.49-5.32,11.76-11.88,11.76s-11.88-5.26-11.88-11.76,5.32-11.76,11.88-11.76,11.88,5.26,11.88,11.76Z"/>
          <path class="uuid-93143ae2-0762-45c2-ae99-380c5f89fa33" d="M1109.87,2370.26c0,10.54-8.63,19.08-19.28,19.08s-19.28-8.54-19.28-19.08,8.63-19.08,19.28-19.08,19.28,8.54,19.28,19.08Z"/>
        </g>
        <g class="uuid-c6d392a1-d680-4362-af62-7d1da8a83082">
          <path class="uuid-8429cf06-f2e7-4e68-8312-34f7dd30820c" d="M2882.7,2304.7c0,8.73,7.15,15.81,15.97,15.81s15.97-7.08,15.97-15.81-7.15-15.81-15.97-15.81-15.97,7.08-15.97,15.81Z"/>
          <path class="uuid-a2685fc0-f498-4fc7-8785-d8540c97b65a" d="M2839.78,2265.55c0,7.21,5.9,13.05,13.19,13.05s13.18-5.84,13.18-13.05-5.9-13.05-13.18-13.05-13.19,5.84-13.19,13.05Z"/>
          <path class="uuid-70e93744-f71b-46c2-ae19-9977c0849307" d="M2772.04,2209.55c0,4.47,3.66,8.1,8.18,8.1s8.18-3.63,8.18-8.1-3.66-8.1-8.18-8.1-8.18,3.63-8.18,8.1Z"/>
          <ellipse class="uuid-954606f0-df9b-467d-9903-de1a689c9eaa" cx="2790.14" cy="2385.46" rx="12.12" ry="12"/>
          <path class="uuid-df540c5d-d9b5-40f0-b048-9c5b0f9e8e6d" d="M2881.94,2433.25c0,6.42,5.25,11.62,11.73,11.62s11.73-5.2,11.73-11.62-5.25-11.61-11.73-11.61-11.73,5.2-11.73,11.61Z"/>
          <path class="uuid-01869277-81f6-4417-abaf-957dcbdc52cb" d="M2882.33,2202.98c0,5.57,4.56,10.09,10.2,10.09s10.19-4.52,10.19-10.09-4.56-10.09-10.19-10.09-10.2,4.52-10.2,10.09Z"/>
          <path class="uuid-1bbade0d-47d2-466e-9966-bb1227e49ca2" d="M2936.98,2243.94c0,11.15,9.13,20.18,20.39,20.18s20.39-9.04,20.39-20.18-9.13-20.18-20.39-20.18-20.39,9.04-20.39,20.18Z"/>
          <path class="uuid-ed3e37d2-d175-4c25-9e62-41fd63fb16b1" d="M2940.62,2118.5c0,8.89,7.28,16.1,16.26,16.1s16.26-7.21,16.26-16.1-7.28-16.1-16.26-16.1-16.26,7.21-16.26,16.1Z"/>
          <path class="uuid-d997daba-556c-4290-b681-9ccb6f298397" d="M2820.53,2092.22c0,9.1,7.45,16.48,16.65,16.48s16.65-7.38,16.65-16.48-7.45-16.48-16.65-16.48-16.65,7.38-16.65,16.48Z"/>
          <ellipse class="uuid-c7fe711c-5281-44ed-9674-1eb4b5d4a5b7" cx="2844.88" cy="1985.55" rx="7.41" ry="7.34"/>
          <path class="uuid-955859f7-b783-4834-bd5a-2690f4d27453" d="M2875.96,2128.79c0,6.58,5.39,11.91,12.03,11.91s12.03-5.33,12.03-11.91-5.39-11.91-12.03-11.91-12.03,5.33-12.03,11.91Z"/>
        </g>
        <g class="uuid-c6d392a1-d680-4362-af62-7d1da8a83082">
          <path class="uuid-aeddecc1-c275-4fa8-bc0c-60d9f1e45050" d="M527.39,1448.99c0,8.73,7.15,15.81,15.97,15.81s15.97-7.08,15.97-15.81-7.15-15.81-15.97-15.81-15.97,7.08-15.97,15.81Z"/>
          <path class="uuid-e1cc74fb-dc1a-4754-a8b4-95f047bfab40" d="M440.27,1383.01c0,7.21,5.9,13.05,13.19,13.05s13.18-5.84,13.18-13.05-5.9-13.05-13.18-13.05-13.19,5.84-13.19,13.05Z"/>
          <ellipse class="uuid-79c73534-2f21-4b83-be6a-5be99dd3bf45" cx="380.56" cy="1281.2" rx="8.18" ry="8.1"/>
          <ellipse class="uuid-fe5a2710-4d92-40b1-be8b-2962ebaae8a6" cx="466.77" cy="1482.31" rx="12.12" ry="12"/>
          <path class="uuid-c312fb2f-e5b1-4810-8913-32c7aec15367" d="M509.63,1604.79c0,4.03,3.3,7.29,7.36,7.29s7.37-3.26,7.37-7.29-3.3-7.29-7.37-7.29-7.36,3.26-7.36,7.29Z"/>
          <path class="uuid-10fe8b5d-f6a3-4776-ac45-113d509bb32b" d="M560.93,1528.31c0,4.03,3.3,7.29,7.37,7.29s7.37-3.26,7.37-7.29-3.3-7.29-7.37-7.29-7.37,3.26-7.37,7.29Z"/>
          <path class="uuid-4d6d069a-5dc3-4eb9-8e4a-1f86d1ca11bf" d="M499.19,1338.53c0,5.57,4.56,10.09,10.19,10.09s10.2-4.52,10.2-10.09-4.57-10.09-10.2-10.09-10.19,4.52-10.19,10.09Z"/>
          <path class="uuid-30ef131c-f1b3-4d56-9dc8-9f3873e25935" d="M543.05,1299.98c0,8.89,7.28,16.1,16.27,16.1s16.26-7.21,16.26-16.1-7.28-16.1-16.26-16.1-16.27,7.21-16.27,16.1Z"/>
          <ellipse class="uuid-5f9222c5-be6b-44a8-89ca-2cf8ecb87832" cx="485.41" cy="1155.68" rx="16.65" ry="16.48"/>
          <path class="uuid-a297739f-040e-44dc-98f3-5a604b110fd7" d="M514.1,1082.4c0,4.05,3.32,7.34,7.41,7.34s7.41-3.28,7.41-7.34-3.32-7.34-7.41-7.34-7.41,3.28-7.41,7.34Z"/>
          <path class="uuid-2637d19d-64f8-4263-95bb-5ec2c7812850" d="M456.41,1268.35c0,6.58,5.39,11.91,12.03,11.91s12.03-5.33,12.03-11.91-5.39-11.91-12.03-11.91-12.03,5.33-12.03,11.91Z"/>
        </g>
        <g class="uuid-79502c38-9dbb-413b-ad6f-7d0e7b419865">
          <path class="uuid-48ee12d5-2258-42f3-b553-14c364357ba7" d="M4950.2,1137.48c0,6.94,5.68,12.57,12.7,12.57s12.7-5.63,12.7-12.57-5.68-12.57-12.7-12.57-12.7,5.63-12.7,12.57Z"/>
          <path class="uuid-4d85ad0f-2e56-440d-b422-3b0068de5f12" d="M4916.06,1106.35c0,5.73,4.69,10.38,10.49,10.38s10.48-4.65,10.48-10.38-4.69-10.38-10.48-10.38-10.49,4.65-10.49,10.38Z"/>
          <path class="uuid-3605fc14-897d-460a-9882-4bcf41fda9ac" d="M4862.2,1061.82c0,3.56,2.91,6.44,6.51,6.44s6.51-2.88,6.51-6.44-2.91-6.44-6.51-6.44-6.51,2.88-6.51,6.44Z"/>
          <path class="uuid-fcd4daea-c376-4c75-92cb-6ca3e7f711cf" d="M4866.95,1201.7c0,5.27,4.32,9.54,9.64,9.54s9.64-4.27,9.64-9.54-4.32-9.54-9.64-9.54-9.64,4.27-9.64,9.54Z"/>
          <path class="uuid-d3892450-8849-4871-9b20-11d6718bd36b" d="M4919.27,1293.93c0,2.97,2.43,5.38,5.44,5.38s5.44-2.41,5.44-5.38-2.44-5.38-5.44-5.38-5.44,2.41-5.44,5.38Z"/>
          <path class="uuid-b026ad45-be31-45fe-a132-a6e519be0dc4" d="M4995.75,1058.64c0,4.43,3.63,8.02,8.11,8.02s8.11-3.59,8.11-8.02-3.63-8.02-8.11-8.02-8.11,3.59-8.11,8.02Z"/>
          <ellipse class="uuid-dc71e548-78e9-4a8d-86ff-b53999429eea" cx="4914" cy="968.52" rx="13.24" ry="13.1"/>
          <path class="uuid-9569cec2-908a-4895-8c90-9b807649ff66" d="M4914.23,883.71c0,3.22,2.64,5.83,5.89,5.83s5.89-2.61,5.89-5.83-2.64-5.83-5.89-5.83-5.89,2.61-5.89,5.83Z"/>
          <path class="uuid-d9d55762-4691-4cc5-85ad-c7e86dc76feb" d="M4944.83,997.6c0,5.23,4.28,9.47,9.57,9.47s9.57-4.24,9.57-9.47-4.28-9.47-9.57-9.47-9.57,4.24-9.57,9.47Z"/>
        </g>
      </g>
    </g>
  </g>
</svg>